<mxfile host="app.diagrams.net" agent="Mozilla/5.0 (Macintosh; Intel Mac OS X 10_15_7) AppleWebKit/605.1.15 (KHTML, like Gecko) Version/17.6 Safari/605.1.15" version="28.1.0" pages="2">
  <diagram name="Page-1" id="IOkbpWCdGHB3i5eGaSAn">
    <mxGraphModel dx="1351" dy="931" grid="1" gridSize="10" guides="1" tooltips="1" connect="1" arrows="1" fold="1" page="1" pageScale="1" pageWidth="827" pageHeight="1169" background="#ffffff" math="0" shadow="0">
      <root>
        <mxCell id="0" />
        <mxCell id="1" parent="0" />
        <mxCell id="7Cu0XpS1G-1EHRfLVNvW-2" value="" style="edgeStyle=orthogonalEdgeStyle;rounded=1;orthogonalLoop=1;jettySize=auto;html=1;" parent="1" source="7Cu0XpS1G-1EHRfLVNvW-3" target="7Cu0XpS1G-1EHRfLVNvW-5" edge="1">
          <mxGeometry relative="1" as="geometry" />
        </mxCell>
        <mxCell id="7Cu0XpS1G-1EHRfLVNvW-3" value="&lt;h2&gt;&lt;font face=&quot;Times New Roman&quot;&gt;&lt;b&gt;REMOVING NOISE&lt;/b&gt;&lt;/font&gt;&lt;/h2&gt;" style="rounded=1;whiteSpace=wrap;html=1;gradientDirection=north;strokeWidth=2;shadow=0;glass=0;" parent="1" vertex="1">
          <mxGeometry x="400" y="310" width="230" height="40" as="geometry" />
        </mxCell>
        <mxCell id="7Cu0XpS1G-1EHRfLVNvW-4" value="" style="edgeStyle=orthogonalEdgeStyle;rounded=1;orthogonalLoop=1;jettySize=auto;html=1;" parent="1" source="7Cu0XpS1G-1EHRfLVNvW-5" target="7Cu0XpS1G-1EHRfLVNvW-7" edge="1">
          <mxGeometry relative="1" as="geometry" />
        </mxCell>
        <mxCell id="7Cu0XpS1G-1EHRfLVNvW-5" value="&lt;h2&gt;&lt;font face=&quot;Times New Roman&quot;&gt;CASE CONVERSION&lt;/font&gt;&lt;/h2&gt;" style="rounded=1;whiteSpace=wrap;html=1;strokeWidth=2;gradientDirection=north;" parent="1" vertex="1">
          <mxGeometry x="400" y="390" width="230" height="40" as="geometry" />
        </mxCell>
        <mxCell id="7Cu0XpS1G-1EHRfLVNvW-6" value="" style="edgeStyle=orthogonalEdgeStyle;rounded=1;orthogonalLoop=1;jettySize=auto;html=1;" parent="1" source="7Cu0XpS1G-1EHRfLVNvW-7" target="7Cu0XpS1G-1EHRfLVNvW-9" edge="1">
          <mxGeometry relative="1" as="geometry" />
        </mxCell>
        <mxCell id="7Cu0XpS1G-1EHRfLVNvW-7" value="&lt;h2&gt;&lt;font style=&quot;font-size: 17px;&quot; face=&quot;Times New Roman&quot;&gt;REMOVING STOP WORDS&lt;/font&gt;&lt;/h2&gt;" style="rounded=1;whiteSpace=wrap;html=1;strokeWidth=2;gradientDirection=north;" parent="1" vertex="1">
          <mxGeometry x="400" y="470" width="230" height="40" as="geometry" />
        </mxCell>
        <mxCell id="7Cu0XpS1G-1EHRfLVNvW-8" value="" style="edgeStyle=orthogonalEdgeStyle;rounded=1;orthogonalLoop=1;jettySize=auto;html=1;" parent="1" source="7Cu0XpS1G-1EHRfLVNvW-9" target="7Cu0XpS1G-1EHRfLVNvW-10" edge="1">
          <mxGeometry relative="1" as="geometry" />
        </mxCell>
        <mxCell id="7Cu0XpS1G-1EHRfLVNvW-9" value="&lt;h2&gt;&lt;font face=&quot;Times New Roman&quot;&gt;TOKENIZATION&lt;/font&gt;&lt;/h2&gt;" style="rounded=1;whiteSpace=wrap;html=1;strokeWidth=2;gradientDirection=north;" parent="1" vertex="1">
          <mxGeometry x="400" y="550" width="230" height="40" as="geometry" />
        </mxCell>
        <mxCell id="7Cu0XpS1G-1EHRfLVNvW-10" value="&lt;h2&gt;&lt;font face=&quot;Times New Roman&quot;&gt;LEMMATIZATION&lt;/font&gt;&lt;/h2&gt;" style="rounded=1;whiteSpace=wrap;html=1;strokeWidth=2;gradientDirection=north;" parent="1" vertex="1">
          <mxGeometry x="400" y="630" width="230" height="40" as="geometry" />
        </mxCell>
      </root>
    </mxGraphModel>
  </diagram>
  <diagram id="Q1G0oFwyC5wgpkf_wyAl" name="Page-2">
    <mxGraphModel dx="946" dy="704" grid="0" gridSize="10" guides="1" tooltips="1" connect="1" arrows="1" fold="1" page="0" pageScale="1" pageWidth="827" pageHeight="1169" math="0" shadow="0">
      <root>
        <mxCell id="0" />
        <mxCell id="1" parent="0" />
      </root>
    </mxGraphModel>
  </diagram>
</mxfile>
